<svg xmlns="http://www.w3.org/2000/svg" width="34" height="34" viewBox="0 0 34 34">
    <path fill="#323232" fill-rule="evenodd" d="M17 0c9.39 0 17 7.61 17 17 0 9.388-7.61 17-17 17-9.388 0-17-7.612-17-17C0 7.61 7.612 0 17 0zm-2.757 25.053c7.429 0 11.49-6.196 11.49-11.568a11.4 11.4 0 0 0-.01-.526 8.252 8.252 0 0 0 2.014-2.105 8.02 8.02 0 0 1-2.32.64 4.075 4.075 0 0 0 1.776-2.249 8.061 8.061 0 0 1-2.564.987 4.022 4.022 0 0 0-2.948-1.285c-2.23 0-4.039 1.821-4.039 4.066 0 .319.036.63.105.927a11.44 11.44 0 0 1-8.324-4.248 4.072 4.072 0 0 0-.547 2.044 4.07 4.07 0 0 0 1.797 3.384 3.988 3.988 0 0 1-1.83-.509v.052a4.06 4.06 0 0 0 3.24 3.986 4.025 4.025 0 0 1-1.824.07 4.046 4.046 0 0 0 3.773 2.823 8.07 8.07 0 0 1-5.016 1.74c-.326 0-.647-.018-.963-.056a11.377 11.377 0 0 0 6.19 1.827z"/>
</svg>
